<?xml version="1.0" standalone="no"?>
<!DOCTYPE svg PUBLIC "-//W3C//DTD SVG 20010904//EN"
 "http://www.w3.org/TR/2001/REC-SVG-20010904/DTD/svg10.dtd">
<svg version="1.0" xmlns="http://www.w3.org/2000/svg"
 width="100.000000pt" height="100.000000pt" viewBox="0 0 100.000000 100.000000"
 preserveAspectRatio="xMidYMid meet">

<g transform="translate(0.000000,100.000000) scale(0.100000,-0.100000)"
fill="#000000" stroke="none">
<path d="M263 768 c-12 -13 -29 -41 -38 -63 -20 -47 -32 -189 -18 -198 16 -10
44 28 63 84 16 47 18 48 23 22 3 -15 13 -37 21 -48 21 -28 46 -11 67 44 l15
43 12 -40 c7 -21 21 -47 33 -58 l22 -19 -5 75 c-6 83 -38 170 -63 170 -14 0
-26 -21 -52 -90 -9 -23 -11 -21 -28 30 -23 71 -27 75 -52 48z"/>
<path d="M661 779 c-24 -5 -64 -16 -88 -25 -42 -16 -43 -17 -26 -37 10 -11 36
-27 57 -37 l40 -16 -62 -14 c-69 -14 -73 -23 -22 -58 61 -41 230 -81 230 -54
0 16 -46 52 -85 65 l-39 14 29 7 c67 17 72 47 13 77 l-42 21 38 13 c38 13 64
31 55 38 -12 11 -59 13 -98 6z"/>
<path d="M130 427 c0 -8 14 -42 31 -75 105 -210 358 -283 552 -160 78 50 156
163 157 227 0 22 -3 23 -42 19 -63 -8 -119 -34 -112 -52 3 -8 20 -16 37 -18
l30 -3 -51 -56 c-69 -76 -132 -104 -232 -103 -61 0 -84 5 -125 26 -59 31 -125
97 -154 154 -11 23 -27 44 -36 48 -28 10 -55 7 -55 -7z"/>
</g>
</svg>
