<?xml version="1.0" standalone="no"?>
<!DOCTYPE svg PUBLIC "-//W3C//DTD SVG 20010904//EN"
 "http://www.w3.org/TR/2001/REC-SVG-20010904/DTD/svg10.dtd">
<svg version="1.0" xmlns="http://www.w3.org/2000/svg"
 width="2000.000000pt" height="2000.000000pt" viewBox="0 0 2000.000000 2000.000000"
 preserveAspectRatio="xMidYMid meet">

<g transform="translate(0.000000,2000.000000) scale(0.100000,-0.100000)"
fill="#000000" stroke="none">
<path d="M9625 19993 c-1858 -74 -3637 -650 -5174 -1675 -555 -371 -1034 -764
-1511 -1238 -1229 -1224 -2124 -2760 -2584 -4435 -952 -3469 40 -7197 2589
-9730 1376 -1368 3084 -2291 4990 -2699 1305 -279 2706 -286 4035 -20 1042
209 2090 603 3015 1136 1677 965 3029 2385 3915 4113 977 1903 1315 4078 964
6195 -230 1390 -760 2729 -1544 3905 -901 1352 -2106 2455 -3533 3234 -1475
806 -3159 1231 -4827 1219 -146 -1 -296 -3 -335 -5z m790 -1073 c2148 -111
4163 -971 5700 -2433 713 -679 1272 -1409 1733 -2266 600 -1114 946 -2318
1044 -3641 16 -217 16 -946 0 -1165 -149 -2008 -894 -3804 -2196 -5301 -161
-185 -635 -660 -816 -818 -1273 -1112 -2786 -1830 -4438 -2106 -795 -133
-1651 -155 -2459 -64 -2617 294 -4970 1727 -6433 3918 -380 569 -698 1193
-938 1836 -301 807 -476 1616 -544 2510 -20 264 -17 1029 5 1290 133 1568 624
2993 1470 4265 1416 2127 3672 3546 6199 3899 536 75 1149 103 1673 76z"/>
<path d="M5712 15798 c-55 -35 -137 -91 -181 -126 -102 -81 -287 -271 -380
-392 -601 -776 -1044 -2087 -1171 -3465 -18 -188 -24 -727 -11 -910 15 -206
44 -408 81 -565 33 -135 99 -340 110 -340 4 0 55 29 114 64 241 145 445 348
636 631 314 469 563 1146 687 1868 l27 157 52 0 52 0 22 -92 c67 -292 181
-654 270 -864 110 -256 209 -414 344 -550 191 -191 379 -230 595 -123 351 173
691 898 840 1789 l26 155 44 3 c24 2 48 -1 52 -5 5 -5 40 -119 79 -253 216
-746 384 -1141 622 -1461 77 -105 221 -254 312 -324 68 -51 232 -155 246 -155
8 0 56 240 75 380 54 395 44 905 -25 1365 -85 558 -231 1076 -532 1875 -185
490 -191 506 -268 661 -110 222 -234 373 -355 434 -54 27 -69 30 -155 30 -81
-1 -103 -4 -150 -26 -221 -104 -421 -389 -607 -864 -121 -308 -189 -533 -308
-1010 l-82 -330 -51 -3 -50 -3 -418 1256 c-231 690 -424 1255 -429 1255 -6 0
-57 -28 -113 -62z"/>
<path d="M13881 15690 c-278 -16 -534 -55 -946 -145 -298 -65 -913 -250 -1185
-358 -36 -14 -103 -40 -150 -57 -126 -47 -448 -179 -610 -250 -52 -23 -137
-60 -189 -81 -52 -22 -105 -46 -118 -55 l-24 -15 55 -105 c193 -363 583 -675
1146 -914 242 -103 617 -216 870 -261 69 -12 128 -25 133 -28 4 -4 4 -27 1
-52 l-6 -46 -217 -56 c-119 -31 -250 -66 -291 -78 -41 -11 -158 -42 -260 -68
-250 -65 -576 -152 -800 -213 -102 -27 -255 -68 -340 -90 -183 -47 -501 -136
-507 -141 -8 -9 21 -103 58 -190 50 -117 106 -203 198 -307 70 -78 238 -227
286 -252 11 -6 56 -35 101 -63 254 -165 1118 -557 1696 -769 547 -201 1197
-365 1648 -416 52 -6 131 -15 175 -21 44 -5 208 -12 365 -16 273 -5 435 2 630
27 41 6 99 13 128 16 39 5 52 11 52 23 0 40 -74 236 -116 310 -111 193 -362
442 -584 580 -30 19 -77 49 -105 66 -69 45 -394 207 -485 243 -41 17 -112 46
-158 66 -46 20 -120 49 -165 65 -45 16 -127 46 -182 66 -55 20 -190 67 -300
105 -110 38 -218 76 -240 86 l-40 17 35 15 c19 8 105 34 190 59 776 223 1013
326 1220 533 102 101 140 160 165 255 24 94 17 161 -26 260 -64 146 -254 311
-539 468 -183 101 -200 109 -390 189 -217 92 -488 190 -680 247 l-155 47 2 48
c1 26 3 50 6 52 2 3 60 14 128 25 236 38 337 59 629 130 450 109 783 269 1010
486 103 97 156 168 223 293 69 131 70 123 -20 148 -214 58 -406 91 -718 120
-123 12 -411 13 -604 2z"/>
<path d="M16805 8884 c-16 -2 -70 -9 -120 -15 -114 -14 -337 -60 -480 -99 -60
-17 -121 -33 -134 -36 -14 -3 -28 -7 -33 -10 -5 -3 -20 -7 -33 -10 -80 -14
-719 -233 -890 -305 -16 -6 -34 -13 -40 -14 -35 -9 -614 -248 -660 -273 -94
-51 -145 -137 -145 -244 0 -211 149 -389 352 -419 34 -5 248 -23 473 -39 226
-17 424 -34 441 -38 l31 -7 -54 -100 c-74 -134 -172 -298 -255 -423 -37 -56
-68 -105 -68 -107 0 -3 -6 -13 -14 -22 -8 -10 -64 -85 -125 -166 -98 -131
-147 -192 -314 -392 -67 -79 -485 -493 -582 -575 -49 -41 -99 -84 -111 -95
-40 -36 -216 -170 -339 -259 -66 -48 -128 -94 -138 -102 -9 -8 -22 -14 -27
-14 -6 0 -10 -4 -10 -9 0 -5 -6 -11 -12 -13 -7 -2 -71 -40 -143 -86 -160 -102
-141 -91 -255 -153 -52 -29 -102 -58 -110 -64 -32 -23 -502 -246 -623 -295
-71 -28 -140 -56 -155 -62 -15 -6 -31 -12 -37 -14 -5 -1 -55 -19 -110 -39 -99
-36 -437 -142 -485 -151 -14 -3 -77 -18 -140 -34 -217 -54 -464 -98 -720 -130
-235 -28 -272 -31 -590 -38 -388 -9 -713 13 -1075 74 -82 14 -161 27 -175 29
-14 2 -92 20 -175 39 -294 70 -568 155 -825 257 -331 132 -718 332 -998 515
-62 41 -117 74 -122 74 -4 0 -10 4 -12 8 -2 7 -86 67 -172 125 -10 6 -32 24
-50 39 -17 15 -34 28 -38 28 -4 0 -13 6 -21 14 -8 8 -59 50 -113 93 -435 348
-813 718 -1162 1138 -74 90 -219 288 -300 410 -48 72 -90 132 -94 133 -5 2 -8
7 -8 12 0 8 -99 180 -110 190 -6 6 -22 36 -241 471 -223 444 -312 583 -478
750 -88 88 -138 129 -205 168 -166 97 -338 157 -536 185 -157 23 -396 17 -540
-13 -57 -12 -107 -24 -109 -27 -13 -13 119 -495 210 -766 61 -184 180 -503
207 -554 14 -26 35 -77 37 -90 2 -5 30 -68 63 -140 33 -71 66 -142 73 -159 34
-73 178 -350 235 -452 102 -179 286 -479 303 -493 3 -3 12 -16 20 -30 16 -30
261 -372 296 -415 13 -16 63 -79 111 -140 48 -60 94 -117 103 -125 9 -8 24
-25 33 -38 22 -33 123 -145 279 -312 451 -480 993 -922 1562 -1274 350 -216
769 -430 1142 -581 129 -53 319 -125 340 -130 5 -1 22 -7 36 -13 127 -52 574
-179 837 -238 511 -114 962 -168 1502 -180 327 -8 610 5 950 41 25 3 68 8 95
10 225 22 663 104 960 179 163 41 427 116 465 133 8 3 23 8 32 9 23 5 352 122
397 142 20 9 38 16 41 17 18 4 62 20 105 39 28 13 102 44 165 71 263 110 573
268 860 438 146 86 492 313 526 345 11 11 30 24 42 31 20 11 289 217 322 247
8 8 62 54 120 102 153 129 244 214 435 406 143 144 217 223 375 401 10 11 45
54 79 95 34 41 67 82 74 90 20 24 91 116 107 140 8 12 27 36 42 54 15 17 28
34 28 38 0 4 7 13 15 22 59 59 452 664 482 742 4 10 17 34 29 52 61 90 377
746 466 966 72 180 157 446 174 543 2 15 11 66 19 113 15 83 24 295 16 375 -7
70 -29 170 -52 229 -36 98 -94 148 -214 183 -49 14 -269 26 -330 17z"/>
</g>
</svg>
