<?xml version="1.0" standalone="no"?>
<!DOCTYPE svg PUBLIC "-//W3C//DTD SVG 20010904//EN"
 "http://www.w3.org/TR/2001/REC-SVG-20010904/DTD/svg10.dtd">
<svg version="1.0" xmlns="http://www.w3.org/2000/svg"
 width="100.000000pt" height="100.000000pt" viewBox="0 0 100.000000 100.000000"
 preserveAspectRatio="xMidYMid meet">

<g transform="translate(0.000000,100.000000) scale(0.100000,-0.100000)"
fill="#000000" stroke="none">
<path d="M263 768 c-12 -13 -29 -41 -38 -63 -20 -47 -32 -189 -18 -198 16 -10
44 28 63 84 16 47 18 48 23 22 3 -15 13 -37 21 -48 21 -28 46 -11 67 44 l15
43 12 -40 c7 -21 21 -47 33 -58 l22 -19 -5 75 c-6 83 -38 170 -63 170 -14 0
-26 -21 -52 -90 -9 -23 -11 -21 -28 30 -23 71 -27 75 -52 48z"/>
<path d="M661 779 c-24 -5 -64 -16 -88 -25 -42 -16 -43 -17 -26 -37 10 -11 36
-27 57 -37 l40 -16 -62 -14 c-69 -14 -73 -23 -22 -58 61 -41 230 -81 230 -54
0 16 -46 52 -85 65 l-39 14 29 7 c67 17 72 47 13 77 l-42 21 38 13 c38 13 64
31 55 38 -12 11 -59 13 -98 6z"/>
<path d="M140 417 c0 -32 43 -115 86 -165 22 -26 63 -55 112 -79 71 -36 82
-38 166 -38 81 0 98 3 158 32 84 39 150 105 189 186 35 75 36 87 5 87 -23 0
-76 -49 -76 -71 0 -21 -97 -112 -145 -137 -40 -21 -65 -26 -125 -26 -96 -1
-168 32 -236 107 l-47 52 34 5 c21 3 34 11 34 20 0 17 -77 49 -122 49 -28 1
-33 -3 -33 -22z"/>
</g>
</svg>
