<?xml version="1.0" standalone="no"?>
<!DOCTYPE svg PUBLIC "-//W3C//DTD SVG 20010904//EN"
 "http://www.w3.org/TR/2001/REC-SVG-20010904/DTD/svg10.dtd">
<svg version="1.0" xmlns="http://www.w3.org/2000/svg"
 width="100.000000pt" height="100.000000pt" viewBox="0 0 100.000000 100.000000"
 preserveAspectRatio="xMidYMid meet">

<g transform="translate(0.000000,100.000000) scale(0.100000,-0.100000)"
fill="#000000" stroke="none">
<path d="M383 986 c-219 -53 -383 -261 -383 -486 0 -270 230 -500 500 -500
270 0 500 230 500 500 0 274 -233 503 -508 499 -31 0 -80 -6 -109 -13z m193
-47 c216 -39 366 -219 366 -439 0 -224 -151 -402 -374 -440 -236 -41 -470 130
-510 373 -37 225 119 453 345 502 78 17 100 18 173 4z"/>
<path d="M261 766 c-43 -46 -82 -242 -52 -261 15 -9 51 44 63 93 l11 44 13
-37 c25 -75 59 -71 87 10 l13 37 12 -39 c6 -22 21 -48 33 -59 l22 -19 -5 75
c-6 83 -38 170 -63 170 -14 0 -26 -21 -52 -90 -9 -23 -11 -21 -28 30 -23 71
-27 75 -54 46z"/>
<path d="M590 760 c-30 -11 -56 -20 -59 -20 -17 0 49 -52 78 -61 l36 -12 -60
-16 c-33 -9 -60 -20 -60 -26 0 -17 67 -55 133 -75 66 -21 132 -26 132 -12 0
16 -46 52 -85 65 l-39 14 29 7 c69 17 72 47 8 80 -37 19 -43 25 -25 26 28 0
82 27 82 40 0 17 -113 10 -170 -10z"/>
<path d="M140 417 c0 -37 51 -128 98 -175 23 -24 73 -58 110 -75 60 -28 77
-32 157 -32 80 0 97 4 157 32 84 39 150 105 189 186 35 75 36 87 5 87 -23 0
-76 -49 -76 -71 0 -21 -97 -112 -145 -137 -41 -22 -64 -27 -125 -27 -96 0
-168 33 -236 108 l-47 52 34 5 c21 3 34 11 34 20 0 17 -77 49 -122 49 -28 1
-33 -3 -33 -22z"/>
</g>
</svg>
